<svg width="24" height="24" viewBox="0 0 24 24" fill="none" xmlns="http://www.w3.org/2000/svg">
<path fill-rule="evenodd" clip-rule="evenodd" d="M4 21.25C4 20.8358 4.33579 20.5 4.75 20.5H19.25C19.6642 20.5 20 20.8358 20 21.25C20 21.6642 19.6642 22 19.25 22H4.75C4.33579 22 4 21.6642 4 21.25Z" fill="#EDEDD5"/>
<path fill-rule="evenodd" clip-rule="evenodd" d="M5.21967 9.96967C4.92678 10.2626 4.92678 10.7374 5.21967 11.0303L11.4697 17.2803C11.7626 17.5732 12.2374 17.5732 12.5303 17.2803L18.7803 11.0303C19.0732 10.7374 19.0732 10.2626 18.7803 9.96967C18.4874 9.67678 18.0126 9.67678 17.7197 9.96967L12.75 14.9393V2.75C12.75 2.33579 12.4142 2 12 2C11.5858 2 11.25 2.33579 11.25 2.75V14.9393L6.28033 9.96967C5.98744 9.67678 5.51256 9.67678 5.21967 9.96967Z" fill="#EDEDD5"/>
<path d="M5.21967 11.0303L5.39645 10.8536L5.21967 11.0303ZM5.21967 9.96967L5.04289 9.79289L5.04289 9.79289L5.21967 9.96967ZM11.4697 17.2803L11.2929 17.4571L11.4697 17.2803ZM12.5303 17.2803L12.7071 17.4571L12.5303 17.2803ZM18.7803 11.0303L18.6036 10.8536L18.7803 11.0303ZM18.7803 9.96967L18.6036 10.1464L18.7803 9.96967ZM17.7197 9.96967L17.8964 10.1464L17.7197 9.96967ZM12.75 14.9393H12.5C12.5 15.0405 12.5609 15.1316 12.6543 15.1703C12.7477 15.209 12.8553 15.1876 12.9268 15.1161L12.75 14.9393ZM11.25 14.9393L11.0732 15.1161C11.1447 15.1876 11.2523 15.209 11.3457 15.1703C11.4391 15.1316 11.5 15.0405 11.5 14.9393H11.25ZM6.28033 9.96967L6.45711 9.79289L6.28033 9.96967ZM4.75 20.25C4.19772 20.25 3.75 20.6977 3.75 21.25H4.25C4.25 20.9739 4.47386 20.75 4.75 20.75V20.25ZM19.25 20.25H4.75V20.75H19.25V20.25ZM20.25 21.25C20.25 20.6977 19.8023 20.25 19.25 20.25V20.75C19.5261 20.75 19.75 20.9739 19.75 21.25H20.25ZM19.25 22.25C19.8023 22.25 20.25 21.8023 20.25 21.25H19.75C19.75 21.5261 19.5261 21.75 19.25 21.75V22.25ZM4.75 22.25H19.25V21.75H4.75V22.25ZM3.75 21.25C3.75 21.8023 4.19772 22.25 4.75 22.25V21.75C4.47386 21.75 4.25 21.5261 4.25 21.25H3.75ZM5.39645 10.8536C5.20118 10.6583 5.20118 10.3417 5.39645 10.1464L5.04289 9.79289C4.65237 10.1834 4.65237 10.8166 5.04289 11.2071L5.39645 10.8536ZM11.6464 17.1036L5.39645 10.8536L5.04289 11.2071L11.2929 17.4571L11.6464 17.1036ZM12.3536 17.1036C12.1583 17.2988 11.8417 17.2988 11.6464 17.1036L11.2929 17.4571C11.6834 17.8476 12.3166 17.8476 12.7071 17.4571L12.3536 17.1036ZM18.6036 10.8536L12.3536 17.1036L12.7071 17.4571L18.9571 11.2071L18.6036 10.8536ZM18.6036 10.1464C18.7988 10.3417 18.7988 10.6583 18.6036 10.8536L18.9571 11.2071C19.3476 10.8166 19.3476 10.1834 18.9571 9.79289L18.6036 10.1464ZM17.8964 10.1464C18.0917 9.95118 18.4083 9.95118 18.6036 10.1464L18.9571 9.79289C18.5666 9.40237 17.9334 9.40237 17.5429 9.79289L17.8964 10.1464ZM12.9268 15.1161L17.8964 10.1464L17.5429 9.79289L12.5732 14.7626L12.9268 15.1161ZM12.5 2.75V14.9393H13V2.75H12.5ZM12 2.25C12.2761 2.25 12.5 2.47386 12.5 2.75H13C13 2.19772 12.5523 1.75 12 1.75V2.25ZM11.5 2.75C11.5 2.47386 11.7239 2.25 12 2.25V1.75C11.4477 1.75 11 2.19772 11 2.75H11.5ZM11.5 14.9393V2.75H11V14.9393H11.5ZM6.10355 10.1464L11.0732 15.1161L11.4268 14.7626L6.45711 9.79289L6.10355 10.1464ZM5.39645 10.1464C5.59171 9.95118 5.90829 9.95118 6.10355 10.1464L6.45711 9.79289C6.06658 9.40237 5.43342 9.40237 5.04289 9.79289L5.39645 10.1464Z" fill="#EDEDD5"/>
</svg>
